REM MD5 2489e8ebd027982880e703f5f1a58aba
FILE "Lussan Nathhorst Presenterar Riding Star (Sweden).bin" BINARY
  TRACK 01 MODE2/2352
    INDEX 01 00:00:00
  TRACK 02 AUDIO
    INDEX 00 05:37:27
    INDEX 01 05:39:27
  TRACK 03 AUDIO
    INDEX 00 07:34:54
    INDEX 01 07:36:54
  TRACK 04 AUDIO
    INDEX 00 09:36:20
    INDEX 01 09:38:20
  TRACK 05 AUDIO
    INDEX 00 11:30:35
    INDEX 01 11:32:35
  TRACK 06 AUDIO
    INDEX 00 12:43:74
    INDEX 01 12:45:74
REM LEADOUT 17:45:74
